<?xml version="1.0" encoding="utf-8"?>
<!-- Generator: Adobe Illustrator 17.0.0, SVG Export Plug-In . SVG Version: 6.00 Build 0)  -->
<!DOCTYPE svg PUBLIC "-//W3C//DTD SVG 1.1//EN" "http://www.w3.org/Graphics/SVG/1.1/DTD/svg11.dtd">
<svg version="1.1" id="Layer_1" xmlns="http://www.w3.org/2000/svg" xmlns:xlink="http://www.w3.org/1999/xlink" x="0px" y="0px"
	 width="200px" height="180px" viewBox="0 0 120 120" enable-background="new 0 0 120 120" xml:space="preserve">
<g>
	<path fill-rule="evenodd" clip-rule="evenodd" fill="#090E20" d="M15.561,75.592h-1.933l-5.22,11.95h2.136l1.221-2.865h5.61
		l1.204,2.865h2.204L15.561,75.592L15.561,75.592z M16.612,82.83h-4.085l2.034-4.746L16.612,82.83L16.612,82.83z M35.084,87.542
		l-3.203-4.492c0.418-0.113,0.799-0.274,1.144-0.483c0.345-0.209,0.641-0.463,0.89-0.763c0.249-0.3,0.444-0.644,0.585-1.034
		c0.141-0.39,0.212-0.833,0.212-1.33c0-0.576-0.102-1.099-0.305-1.568c-0.204-0.469-0.494-0.865-0.873-1.187
		c-0.378-0.322-0.842-0.57-1.39-0.746c-0.548-0.175-1.161-0.262-1.839-0.262h-5.288v11.865h2.068v-4.136h2.619l2.924,4.136H35.084
		L35.084,87.542z M32.592,79.55c0,0.613-0.22,1.102-0.664,1.464c-0.441,0.364-1.037,0.545-1.786,0.545h-3.059v-4h3.043
		c0.782,0,1.39,0.167,1.819,0.503C32.378,78.395,32.592,78.892,32.592,79.55L32.592,79.55z M48.284,75.677h-8.814v11.865h2.068
		v-4.831h5.983V80.83h-5.983v-3.272h6.746V75.677L48.284,75.677z M52.909,75.677v11.865h2.068V75.677H52.909L52.909,75.677z
		 M65.38,77.61h3.763v-1.932h-9.628v1.932h3.763v9.933h2.101V77.61L65.38,77.61z M82.327,75.677h-8.78v11.865h8.865v-1.882h-6.797
		v-3.17h5.95V80.61h-5.95v-3.051h6.712V75.677L82.327,75.677z M97.426,85.644l-1.339-1.355c-0.508,0.474-1.023,0.85-1.543,1.127
		c-0.52,0.276-1.141,0.415-1.864,0.415c-0.565,0-1.088-0.11-1.567-0.33c-0.481-0.22-0.896-0.523-1.246-0.907
		c-0.35-0.384-0.622-0.834-0.813-1.348c-0.192-0.514-0.288-1.065-0.288-1.653c0-0.588,0.096-1.136,0.288-1.644
		c0.192-0.509,0.463-0.952,0.813-1.331c0.35-0.378,0.766-0.678,1.246-0.898c0.48-0.221,1.002-0.331,1.567-0.331
		c0.678,0,1.282,0.135,1.814,0.406c0.531,0.272,1.034,0.627,1.509,1.068l1.339-1.543c-0.283-0.271-0.583-0.52-0.899-0.746
		c-0.317-0.226-0.661-0.421-1.034-0.584c-0.373-0.164-0.783-0.291-1.229-0.381c-0.447-0.09-0.941-0.136-1.484-0.136
		c-0.904,0-1.728,0.161-2.474,0.483c-0.746,0.322-1.39,0.763-1.932,1.322c-0.542,0.559-0.964,1.212-1.263,1.958
		c-0.299,0.746-0.449,1.543-0.449,2.39c0,0.859,0.153,1.661,0.458,2.407c0.305,0.746,0.726,1.393,1.263,1.941
		c0.536,0.548,1.172,0.98,1.907,1.297c0.734,0.316,1.537,0.474,2.407,0.474c0.554,0,1.059-0.048,1.517-0.144
		c0.458-0.095,0.879-0.237,1.263-0.424c0.384-0.187,0.743-0.407,1.076-0.661C96.802,86.263,97.121,85.972,97.426,85.644
		L97.426,85.644z M106.83,77.61h3.762v-1.932h-9.628v1.932h3.763v9.933h2.102V77.61z"/>
	<path fill-rule="evenodd" clip-rule="evenodd" fill="#00B0E2" d="M59.501,58.756c-1.44-0.004-3.195,0.306-5.236,1.166
		c-1.342,0.565-2.549,1.418-4.529,2.702c-2.403,1.558-5.358,2.66-7.266,0.054c-1.428-1.951-0.754-4.003,0.329-5.879l5.888-10.197
		l6.216-10.767c0.975-1.688,2.649-2.655,4.598-2.655c1.949,0,3.623,0.966,4.598,2.655l6.216,10.767l5.888,10.197
		c1.083,1.876,1.757,3.928,0.329,5.879c-1.908,2.606-4.863,1.504-7.266-0.054c-1.98-1.284-3.188-2.136-4.53-2.702
		C62.696,59.063,60.941,58.753,59.501,58.756L59.501,58.756z M59.501,55.764c2.201,0,4.377,0.549,6.397,1.4
		c1.759,0.741,3.398,1.912,4.996,2.949c0.158,0.103,0.319,0.202,0.481,0.298c0.508,0.3,1.739,0.946,2.356,0.826
		c0.16-0.031,0.297-0.206,0.385-0.327c0.578-0.789-0.094-1.902-0.506-2.615L61.507,37.33c-0.44-0.762-1.127-1.158-2.007-1.158
		c-0.88,0-1.566,0.396-2.007,1.158L45.391,58.295c-0.412,0.713-1.084,1.825-0.506,2.615c0.088,0.121,0.226,0.296,0.385,0.327
		c0.725,0.141,2.222-0.725,2.837-1.124c1.598-1.037,3.237-2.208,4.996-2.949C55.123,56.313,57.299,55.764,59.501,55.764z"/>
</g>
</svg>
